<svg width="31" height="39" viewBox="0 0 31 39" fill="none" xmlns="http://www.w3.org/2000/svg">
<path opacity="0.3" fill-rule="evenodd" clip-rule="evenodd" d="M27.7232 11.6215L9.46306 24.3084L2.71045 13.7523L20.9706 1.06543L27.7232 11.6215Z" fill="#3BB56F"/>
<path opacity="0.3" fill-rule="evenodd" clip-rule="evenodd" d="M20.9706 36.9952L2.71045 24.3083L9.46306 13.7522L27.7232 26.4391L20.9706 36.9952Z" fill="#3BB56F"/>
<path d="M6.08673 25.3739C9.44833 25.3739 12.1735 22.5338 12.1735 19.0304C12.1735 15.5271 9.44833 12.687 6.08673 12.687C2.72512 12.687 0 15.5271 0 19.0304C0 22.5338 2.72512 25.3739 6.08673 25.3739Z" fill="#3BB56F"/>
<path d="M24.347 12.6869C27.7086 12.6869 30.4337 9.84681 30.4337 6.34343C30.4337 2.84005 27.7086 0 24.347 0C20.9854 0 18.2603 2.84005 18.2603 6.34343C18.2603 9.84681 20.9854 12.6869 24.347 12.6869Z" fill="#3BB56F"/>
<path d="M24.347 38.0606C27.7086 38.0606 30.4337 35.2206 30.4337 31.7172C30.4337 28.2138 27.7086 25.3738 24.347 25.3738C20.9854 25.3738 18.2603 28.2138 18.2603 31.7172C18.2603 35.2206 20.9854 38.0606 24.347 38.0606Z" fill="#3BB56F"/>
</svg>
